<?xml version="1.0" encoding="UTF-8" standalone="no"?>
<!-- Created with Inkscape (http://www.inkscape.org/) -->

<svg
   width="5.046mm"
   height="2.675mm"
   viewBox="0 0 5.0460001 2.6749999"
   version="1.1"
   id="svg420"
   sodipodi:docname="web.svg"
   inkscape:version="1.2.2 (b0a8486541, 2022-12-01)"
   xmlns:inkscape="http://www.inkscape.org/namespaces/inkscape"
   xmlns:sodipodi="http://sodipodi.sourceforge.net/DTD/sodipodi-0.dtd"
   xmlns="http://www.w3.org/2000/svg"
   xmlns:svg="http://www.w3.org/2000/svg">
  <sodipodi:namedview
     id="namedview422"
     pagecolor="#ffffff"
     bordercolor="#000000"
     borderopacity="0.25"
     inkscape:showpageshadow="2"
     inkscape:pageopacity="0.0"
     inkscape:pagecheckerboard="0"
     inkscape:deskcolor="#d1d1d1"
     inkscape:document-units="mm"
     showgrid="false"
     inkscape:zoom="1.6076602"
     inkscape:cx="262.49328"
     inkscape:cy="64.068265"
     inkscape:window-width="1600"
     inkscape:window-height="852"
     inkscape:window-x="0"
     inkscape:window-y="0"
     inkscape:window-maximized="1"
     inkscape:current-layer="layer1" />
  <defs
     id="defs417" />
  <g
     inkscape:label="Layer 1"
     inkscape:groupmode="layer"
     id="layer1">
    <g
       aria-label="web"
       id="text235"
       style="font-size:8.46667px;line-height:0.43;font-family:Ubuntu;-inkscape-font-specification:'Ubuntu, @wght=800,wdth=75.0';font-variation-settings:'wdth' 75, 'wght' 800;fill:#858474;stroke-width:0.264583"
       transform="scale(0.4)">
      <path
         d="M 0.77893364,6.5701361 Q 0.69426694,6.2314693 0.5926669,5.7150024 0.49106686,5.1985355 0.38100015,4.5804686 0.27093344,3.9624017 0.1693334,3.3104681 0.07620003,2.6585345 0,2.0658676 h 1.2022671 q 0.016933,0.3217335 0.042333,0.6858003 0.0254,0.3640668 0.059267,0.7620003 0.033867,0.3979335 0.0762,0.8297337 0.0508,0.4233335 0.1100667,0.872067 Q 1.6086673,4.622802 1.693334,4.0640017 1.7780007,3.4967348 1.8372674,2.9972013 1.8965341,2.4892011 1.9219341,2.0658676 h 1.0583338 q 0.0254,0.4233335 0.0762,0.9313337 0.0508,0.4995335 0.127,1.0583338 0.0762,0.5588002 0.1862668,1.1599338 0.067733,-0.4487335 0.1185334,-0.872067 0.0508,-0.4318002 0.093133,-0.8297337 0.0508,-0.3979335 0.0762,-0.7620003 0.033867,-0.3640668 0.059267,-0.6858003 H 4.8683353 Q 4.7921352,2.6585345 4.6905352,3.3104681 4.5974018,3.9624017 4.4873351,4.5804686 4.3772684,5.1985355 4.2756684,5.7150024 4.1740683,6.2314693 4.0894016,6.5701361 H 2.9633345 Q 2.8786678,6.2314693 2.7855344,5.8674025 2.7008677,5.5033356 2.6077344,5.0884688 2.5230677,4.6651353 2.4299343,4.1740684 2.3452676,4.6651353 2.2521342,5.0884688 2.1674675,5.5033356 2.0743342,5.8674025 1.9896675,6.2314693 1.9050008,6.5701361 Z"
         id="path1592" />
      <path
         d="m 7.1035375,6.6886695 q -0.5926669,0 -1.0160004,-0.2709335 Q 5.6642036,6.1468026 5.4440702,5.6303357 5.2239367,5.1138688 5.2239367,4.3772685 q 0,-0.7704669 0.2032001,-1.3123338 0.2032001,-0.5418669 0.5757336,-0.8297337 0.3725335,-0.2878668 0.872067,-0.2878668 0.5080002,0 0.846667,0.2878668 0.3386668,0.2794001 0.5080002,0.8043337 0.1778001,0.5164668 0.1778001,1.2276671 0,0.1354667 -0.00847,0.2540001 0,0.1100667 -0.00847,0.2286001 H 6.4262039 q 0.00847,0.4402669 0.2286001,0.6858003 0.2286001,0.2370667 0.6604002,0.2370667 0.2201335,0 0.4233335,-0.0254 0.2116668,-0.0254 0.3471335,-0.084667 l 0.1354667,0.9144004 q -0.2370667,0.1100667 -0.5164668,0.1608667 -0.2794001,0.0508 -0.6011336,0.0508 z M 6.4177372,3.928535 h 0.872067 q -0.00847,-0.3810001 -0.059267,-0.6096002 -0.0508,-0.2286001 -0.1524,-0.3302002 -0.093133,-0.1016 -0.2370668,-0.1016 -0.1439334,0 -0.2370667,0.1100667 -0.084667,0.1016001 -0.1354668,0.3302001 -0.042333,0.2286001 -0.0508,0.6011336 z"
         id="path1594" />
      <path
         d="m 10.795005,6.6548028 q -0.254,0 -0.491067,-0.0254 Q 10.066871,6.6124694 9.8298043,6.5701361 9.6012042,6.5362694 9.3556708,6.4770027 V 0.18626686 L 10.524071,1.2207031e-7 V 2.082801 q 0.110067,-0.0508 0.245534,-0.0762 0.135466,-0.0254 0.270933,-0.0254 0.5334,0 0.880534,0.2709335 0.347133,0.2624667 0.516467,0.7958669 0.1778,0.5334002 0.1778,1.3462006 0,0.7281336 -0.211667,1.2361338 -0.2032,0.5080002 -0.6096,0.770467 -0.4064,0.2540001 -0.999067,0.254 z m -0.0254,-0.9906004 q 0.220133,0 0.3556,-0.093133 0.143933,-0.1016 0.2032,-0.3725335 0.06773,-0.2794001 0.06773,-0.8043336 0,-0.4318002 -0.03387,-0.7027336 -0.03387,-0.2794002 -0.110067,-0.4318002 -0.06773,-0.1608667 -0.1778,-0.2201334 -0.1016,-0.067733 -0.254,-0.067733 -0.08467,0 -0.160867,0.016933 -0.0762,0.00847 -0.135467,0.042333 v 2.6077344 q 0.05927,0.00847 0.118534,0.016933 0.05927,0.00847 0.127,0.00847 z"
         id="path1596" />
    </g>
  </g>
</svg>
