<?xml version="1.0" encoding="UTF-8" standalone="no"?>
<!-- Created with Inkscape (http://www.inkscape.org/) -->

<svg
   width="7.3579998mm"
   height="2.2219999mm"
   viewBox="0 0 7.3579999 2.2219998"
   version="1.1"
   id="svg420"
   sodipodi:docname="www.svg"
   inkscape:version="1.2.2 (b0a8486541, 2022-12-01)"
   xmlns:inkscape="http://www.inkscape.org/namespaces/inkscape"
   xmlns:sodipodi="http://sodipodi.sourceforge.net/DTD/sodipodi-0.dtd"
   xmlns="http://www.w3.org/2000/svg"
   xmlns:svg="http://www.w3.org/2000/svg">
  <sodipodi:namedview
     id="namedview422"
     pagecolor="#ffffff"
     bordercolor="#000000"
     borderopacity="0.25"
     inkscape:showpageshadow="2"
     inkscape:pageopacity="0.0"
     inkscape:pagecheckerboard="0"
     inkscape:deskcolor="#d1d1d1"
     inkscape:document-units="mm"
     showgrid="false"
     inkscape:zoom="3.9373992"
     inkscape:cx="108.70119"
     inkscape:cy="43.937632"
     inkscape:window-width="1600"
     inkscape:window-height="852"
     inkscape:window-x="0"
     inkscape:window-y="0"
     inkscape:window-maximized="1"
     inkscape:current-layer="layer1" />
  <defs
     id="defs417">
    <rect
       x="53.901615"
       y="65.754585"
       width="60.012817"
       height="35.080078"
       id="rect239" />
  </defs>
  <g
     inkscape:label="Layer 1"
     inkscape:groupmode="layer"
     id="layer1">
    <g
       aria-label="www"
       id="text2150"
       style="font-size:4.23333px;line-height:0.13;font-family:Ubuntu;-inkscape-font-specification:'Ubuntu, @wght=500,wdth=75.0';font-variation-settings:'wdth' 75, 'wght' 500;opacity:1;fill:#858474;stroke-width:0.365">
      <path
         d="M 0.44449963,2.2224982 Q 0.38099968,1.9981317 0.31749974,1.7314319 0.25399979,1.4647321 0.19473317,1.1768657 0.13546656,0.88476597 0.0846666,0.58843289 0.03809997,0.28786647 0,4.7683716e-8 H 0.397933 Q 0.41063299,0.16933324 0.43603297,0.37253307 q 0.0254,0.1989665 0.0592666,0.42333297 Q 0.52916623,1.0202325 0.57149952,1.269999 0.61806615,1.5155321 0.6815661,1.7779986 0.77469935,1.4350988 0.83396597,1.1175991 0.89746592,0.80009937 0.93556588,0.51646628 0.97789918,0.23283319 0.99906583,4.7683716e-8 H 1.3504322 Q 1.3715988,0.23283319 1.4054655,0.51646628 q 0.033867,0.28363309 0.0889,0.60113282 0.059267,0.3174997 0.1396999,0.6603995 0.0635,-0.2582332 0.1100666,-0.5037663 0.0508,-0.2497664 0.0889,-0.47413293 0.0381,-0.22436647 0.0635,-0.4275663 Q 1.9261651,0.16933324 1.938865,4.7683716e-8 H 2.3198647 Q 2.2817648,0.28786647 2.2309648,0.58843289 2.1843982,0.8889993 2.1251315,1.1810991 2.0658649,1.4689655 2.002365,1.7356653 1.938865,1.9981317 1.8711318,2.2224982 H 1.4901321 Q 1.4308655,2.015065 1.3715988,1.7822319 1.3165656,1.5493987 1.2615323,1.295399 1.2107323,1.0371658 1.168399,0.77046607 1.1302991,1.0371658 1.0752658,1.295399 1.0202325,1.5493987 0.95673253,1.7822319 0.89746592,2.015065 0.83396597,2.2224982 Z"
         id="path2260" />
      <path
         d="M 2.963328,2.2224982 Q 2.8998281,1.9981317 2.8363281,1.7314319 2.7728282,1.4647321 2.7135616,1.1768657 2.6542949,0.88476597 2.603495,0.58843289 2.5569284,0.28786647 2.5188284,4.7683716e-8 h 0.397933 Q 2.9294614,0.16933324 2.9548614,0.37253307 q 0.0254,0.1989665 0.059267,0.42333297 0.033867,0.22436646 0.0762,0.47413296 0.046567,0.2455331 0.1100666,0.5079996 Q 3.2935277,1.4350988 3.3527944,1.1175991 3.4162943,0.80009937 3.4543943,0.51646628 3.4967276,0.23283319 3.5178942,4.7683716e-8 H 3.8692606 Q 3.8904272,0.23283319 3.9242939,0.51646628 q 0.033867,0.28363309 0.0889,0.60113282 0.059267,0.3174997 0.1396999,0.6603995 0.0635,-0.2582332 0.1100666,-0.5037663 0.0508,-0.2497664 0.0889,-0.47413293 0.0381,-0.22436647 0.0635,-0.4275663 Q 4.4449934,0.16933324 4.4576934,4.7683716e-8 H 4.8386931 Q 4.8005931,0.28786647 4.7497932,0.58843289 4.7032266,0.8889993 4.6439599,1.1810991 4.5846933,1.4689655 4.5211934,1.7356653 4.4576934,1.9981317 4.3899602,2.2224982 H 4.0089605 Q 3.9496939,2.015065 3.8904272,1.7822319 3.835394,1.5493987 3.7803607,1.295399 3.7295607,1.0371658 3.6872274,0.77046607 3.6491274,1.0371658 3.5940942,1.295399 3.5390609,1.5493987 3.4755609,1.7822319 3.4162943,2.015065 3.3527944,2.2224982 Z"
         id="path2262" />
      <path
         d="M 5.4821564,2.2224982 Q 5.4186565,1.9981317 5.3551565,1.7314319 5.2916566,1.4647321 5.23239,1.1768657 5.1731233,0.88476597 5.1223234,0.58843289 5.0757568,0.28786647 5.0376568,4.7683716e-8 h 0.397933 Q 5.4482898,0.16933324 5.4736898,0.37253307 q 0.0254,0.1989665 0.059267,0.42333297 0.033867,0.22436646 0.0762,0.47413296 0.046567,0.2455331 0.1100666,0.5079996 Q 5.8123561,1.4350988 5.8716228,1.1175991 5.9351227,0.80009937 5.9732227,0.51646628 6.015556,0.23283319 6.0367226,4.7683716e-8 H 6.388089 Q 6.4092556,0.23283319 6.4431223,0.51646628 q 0.033867,0.28363309 0.0889,0.60113282 0.059267,0.3174997 0.1396999,0.6603995 0.0635,-0.2582332 0.1100666,-0.5037663 0.0508,-0.2497664 0.0889,-0.47413293 0.0381,-0.22436647 0.0635,-0.4275663 Q 6.9638218,0.16933324 6.9765218,4.7683716e-8 H 7.3575215 Q 7.3194215,0.28786647 7.2686216,0.58843289 7.222055,0.8889993 7.1627883,1.1810991 7.1035217,1.4689655 7.0400218,1.7356653 6.9765218,1.9981317 6.9087885,2.2224982 H 6.5277889 Q 6.4685223,2.015065 6.4092556,1.7822319 6.3542223,1.5493987 6.2991891,1.295399 6.2483891,1.0371658 6.2060558,0.77046607 6.1679558,1.0371658 6.1129225,1.295399 6.0578893,1.5493987 5.9943893,1.7822319 5.9351227,2.015065 5.8716228,2.2224982 Z"
         id="path2264" />
    </g>
    <polygon
       class="fil1 str0"
       points="140.4,100.89 5.86,100.89 5.86,18.06 140.4,18.06 "
       id="polygon9-1"
       style="clip-rule:evenodd;fill:none;fill-rule:evenodd;stroke:#858474;stroke-width:11.71;stroke-miterlimit:22.9256;image-rendering:optimizeQuality;shape-rendering:geometricPrecision;text-rendering:geometricPrecision"
       transform="matrix(0.02561385,0,0,0.02561385,10.948166,-0.3189242)" />
    <polyline
       class="fil1 str0"
       points="5.86,18.06 73.13,67.76 140.4,18.06 "
       id="polyline11-5"
       style="clip-rule:evenodd;fill:none;fill-rule:evenodd;stroke:#858474;stroke-width:11.71;stroke-miterlimit:22.9256;image-rendering:optimizeQuality;shape-rendering:geometricPrecision;text-rendering:geometricPrecision"
       transform="matrix(0.02561385,0,0,0.02561385,10.948166,-0.3189242)" />
  </g>
</svg>
