<?xml version="1.0" encoding="UTF-8" standalone="no"?>
<svg
   width="198"
   height="40"
   fill="none"
   version="1.1"
   id="svg8"
   sodipodi:docname="қol.svg"
   inkscape:version="1.2.2 (b0a8486541, 2022-12-01)"
   xmlns:inkscape="http://www.inkscape.org/namespaces/inkscape"
   xmlns:sodipodi="http://sodipodi.sourceforge.net/DTD/sodipodi-0.dtd"
   xmlns="http://www.w3.org/2000/svg"
   xmlns:svg="http://www.w3.org/2000/svg">
  <defs
     id="defs12" />
  <sodipodi:namedview
     id="namedview10"
     pagecolor="#ffffff"
     bordercolor="#000000"
     borderopacity="0.25"
     inkscape:showpageshadow="2"
     inkscape:pageopacity="0.0"
     inkscape:pagecheckerboard="0"
     inkscape:deskcolor="#d1d1d1"
     showgrid="false"
     inkscape:zoom="3.4618283"
     inkscape:cx="68.894231"
     inkscape:cy="-30.041929"
     inkscape:window-width="1600"
     inkscape:window-height="852"
     inkscape:window-x="0"
     inkscape:window-y="0"
     inkscape:window-maximized="1"
     inkscape:current-layer="svg8" />
  <path
     d="m 76.035077,-27.625852 h 1.482 c -0.045,-1.63 -1.487,-2.814 -3.555,-2.814 -2.043,0 -3.61,1.168 -3.61,2.923 0,1.417 1.015,2.248 2.65,2.69 l 1.204,0.328 c 1.089,0.289 1.929,0.646 1.929,1.551 0,0.995 -0.95,1.65 -2.257,1.65 -1.184,0 -2.168,-0.526 -2.257,-1.635 h -1.542 c 0.1,1.845 1.527,2.983 3.809,2.983 2.391,0 3.768,-1.258 3.768,-2.983 0,-1.834 -1.635,-2.545 -2.928,-2.863 l -0.994,-0.259 c -0.796,-0.204 -1.855,-0.577 -1.85,-1.551 0,-0.865 0.79,-1.506 2.043,-1.506 1.169,0 1.999,0.546 2.108,1.486 z m 3.338,7.507 h 1.486 v -7.636 h -1.486 z m 0.75,-8.814 c 0.512,0 0.94,-0.398 0.94,-0.885 0,-0.488 -0.428,-0.89 -0.94,-0.89 -0.517,0 -0.94,0.402 -0.94,0.89 0,0.487 0.423,0.885 0.94,0.885 z m 5.938,11.822 c 1.944,0 3.445,-0.89 3.445,-2.839 v -7.805 h -1.457 v 1.238 h -0.11 c -0.263,-0.473 -0.79,-1.338 -2.212,-1.338 -1.844,0 -3.201,1.457 -3.201,3.888 0,2.436 1.387,3.734 3.192,3.734 1.402,0 1.944,-0.79 2.212,-1.278 h 0.094 v 1.502 c 0,1.178 -0.82,1.7 -1.949,1.7 -1.237,0 -1.72,-0.622 -1.983,-1.044 l -1.278,0.527 c 0.403,0.92 1.422,1.715 3.247,1.715 z m -0.015,-4.355 c -1.328,0 -2.019,-1.02 -2.019,-2.52 0,-1.467 0.676,-2.606 2.019,-2.606 1.297,0 1.993,1.06 1.993,2.605 0,1.576 -0.71,2.52 -1.993,2.52 z m 6.94,-3.187 c 0,-1.218 0.746,-1.914 1.78,-1.914 1.01,0 1.62,0.661 1.62,1.77 v 4.678 h 1.487 v -4.857 c 0,-1.89 -1.039,-2.879 -2.6,-2.879 -1.148,0 -1.9,0.532 -2.252,1.343 h -0.095 v -1.243 h -1.427 v 7.636 h 1.487 z m 10.705003,4.534 h 1.536 v -4.44 h 5.076 v 4.44 h 1.542 v -10.182 h -1.542 v 4.425 h -5.076 v -4.425 h -1.536 z m 13.563,0.154 c 1.665,0 2.843,-0.82 3.181,-2.063 l -1.407,-0.253 c -0.268,0.72 -0.914,1.088 -1.759,1.088 -1.273,0 -2.128,-0.825 -2.168,-2.297 h 5.429 v -0.527 c 0,-2.759 -1.651,-3.838 -3.381,-3.838 -2.128,0 -3.53,1.621 -3.53,3.968 0,2.371 1.382,3.922 3.635,3.922 z m -2.148,-4.638 c 0.06,-1.084 0.845,-2.024 2.053,-2.024 1.154,0 1.909,0.855 1.914,2.024 z m 7.073,4.484 h 1.487 v -4.662 c 0,-1 0.77,-1.72 1.824,-1.72 0.309,0 0.657,0.054 0.776,0.09 v -1.425 a 6.048,6.048 0 0 0 -0.632,-0.035 c -0.894,0 -1.66,0.508 -1.938,1.328 h -0.08 v -1.212 h -1.437 z m 8.391,0.154 c 1.666,0 2.844,-0.82 3.182,-2.063 l -1.407,-0.253 c -0.269,0.72 -0.915,1.088 -1.76,1.088 -1.273,0 -2.128,-0.825 -2.168,-2.297 h 5.429 v -0.527 c 0,-2.759 -1.65,-3.838 -3.38,-3.838 -2.128,0 -3.53,1.621 -3.53,3.968 0,2.371 1.382,3.922 3.634,3.922 z m -2.148,-4.638 c 0.06,-1.084 0.845,-2.024 2.054,-2.024 1.153,0 1.909,0.855 1.914,2.024 z"
     fill="#11111b"
     id="path2" />
  <path
     d="M1 36.023c11.246 3.197 22.182-.99 31.508-7.172 4.932-3.269 9.826-7.182 12.825-12.34 1.195-2.057 2.656-5.627-1.106-5.658-4.093-.035-7.14 3.661-8.668 7.021-2.19 4.82-2.268 10.526.407 15.17 2.531 4.396 6.779 6.474 11.845 5.62 5.293-.893 9.92-4.508 13.766-7.986a40.714 40.714 0 003.965-4.092c.142-.17.642-1.006.966-1.064.12-.022.298 3.643.33 3.842.288 1.79 1.191 3.807 3.305 3.868 2.69.078 4.94-2.173 6.75-3.83.61-.56 2.55-3.242 3.583-3.242.425 0 1.249 2.144 1.437 2.428 2.484 3.764 6.132 2.401 8.96-.238.52-.485 3.305-4.366 4.436-3.667.911.564 1.313 1.893 1.78 2.779.76 1.44 1.722 2.467 3.33 3.004 3.493 1.165 7.261-2.103 10.803-2.103 1.033 0 1.561.569 2.11 1.352.749 1.067 1.521 1.813 2.873 2.102 4.188.898 7.617-3.077 11.667-2.728 1.181.102 2.063 1.293 2.949 1.927 1.788 1.28 3.938 2.168 6.127 2.479 3.509.498 7.027-.162 10.447-.901 5.905-1.277 11.752-2.798 17.667-4.03"
     stroke="#11111B"
     stroke-width="1.5"
     stroke-linecap="round"
     stroke-linejoin="round"
     id="path4"
     style="stroke:#878678;stroke-opacity:1;opacity:0.4" />
  <path
     d="M196.515 15.078L184.492.552a.665.665 0 00-.938-.089l-2.905 2.405a.666.666 0 00-.089.938l12.023 14.526a.665.665 0 00.939.089l2.905-2.405a.666.666 0 00.088-.938zM181.436 6.957l-10.581 2.869a.665.665 0 00-.472.481l-4.228 16.795 7.82-6.473a3.34 3.34 0 01.815-4.137 3.337 3.337 0 014.693.443 3.338 3.338 0 01-.442 4.693 3.324 3.324 0 01-2.438.75 3.33 3.33 0 01-1.778-.721l-7.82 6.472 17.289-1.015a.666.666 0 00.56-.374l4.796-9.859-8.214-9.924z"
     fill="#11111B"
     id="path6"
     style="fill:#878678;fill-opacity:1;opacity:0.4" />
  <text
     xml:space="preserve"
     style="font-style:normal;font-variant:normal;font-weight:500;font-stretch:normal;font-size:18.6667px;line-height:0.6;font-family:Ubuntu;-inkscape-font-specification:'Ubuntu Medium';writing-mode:tb-rl;opacity:0.4;fill:#878678;fill-opacity:1;stroke:none;stroke-width:1.00157"
     x="-6.2957821"
     y="67.305138"
     id="text499"
     transform="rotate(-90)"><tspan
       sodipodi:role="line"
       id="tspan497"
       x="-6.2957821"
       y="67.305138"
       style="font-style:italic;font-variant:normal;font-weight:normal;font-stretch:normal;font-size:13.3333px;font-family:Ubuntu;-inkscape-font-specification:'Ubuntu Italic'">қол қоиыу</tspan><tspan
       sodipodi:role="line"
       x="-17.663275"
       y="67.305138"
       style="font-style:italic;font-variant:normal;font-weight:normal;font-stretch:normal;font-size:13.3333px;font-family:Ubuntu;-inkscape-font-specification:'Ubuntu Italic'"
       id="tspan305">подписать</tspan><tspan
       sodipodi:role="line"
       x="-28.947031"
       y="67.305138"
       style="font-style:normal;font-variant:normal;font-weight:500;font-stretch:normal;font-size:18.6667px;font-family:Ubuntu;-inkscape-font-specification:'Ubuntu Medium'"
       id="tspan303" /></text>
</svg>
